<?xml version="1.0" encoding="UTF-8" standalone="no"?>
<!-- Created with Inkscape (http://www.inkscape.org/) -->

<svg
   xmlns:dc="http://purl.org/dc/elements/1.1/"
   xmlns:cc="http://creativecommons.org/ns#"
   xmlns:rdf="http://www.w3.org/1999/02/22-rdf-syntax-ns#"
   xmlns:svg="http://www.w3.org/2000/svg"
   xmlns="http://www.w3.org/2000/svg"
   xmlns:sodipodi="http://sodipodi.sourceforge.net/DTD/sodipodi-0.dtd"
   xmlns:inkscape="http://www.inkscape.org/namespaces/inkscape"
   width="512"
   height="512"
   viewBox="0 0 512.00001 512.00001"
   id="svg4202"
   version="1.1"
   inkscape:version="0.91 r13725"
   sodipodi:docname="sketchfab.svg">
  <defs
     id="defs4204" />
  <sodipodi:namedview
     id="base"
     pagecolor="#ffffff"
     bordercolor="#666666"
     borderopacity="1.0"
     inkscape:pageopacity="0.0"
     inkscape:pageshadow="2"
     inkscape:zoom="0.98994949"
     inkscape:cx="285.96252"
     inkscape:cy="211.35469"
     inkscape:document-units="px"
     inkscape:current-layer="layer1"
     showgrid="false"
     units="px"
     inkscape:snap-page="true"
     inkscape:snap-bbox="true"
     inkscape:bbox-nodes="true"
     inkscape:window-width="1600"
     inkscape:window-height="838"
     inkscape:window-x="-8"
     inkscape:window-y="-8"
     inkscape:window-maximized="1" />
  <metadata
     id="metadata4207">
    <rdf:RDF>
      <cc:Work
         rdf:about="">
        <dc:format>image/svg+xml</dc:format>
        <dc:type
           rdf:resource="http://purl.org/dc/dcmitype/StillImage" />
        <dc:title></dc:title>
      </cc:Work>
    </rdf:RDF>
  </metadata>
  <g
     inkscape:label="Capa 1"
     inkscape:groupmode="layer"
     id="layer1"
     transform="translate(0,-540.36216)">
    <g
       id="g4190"
       transform="matrix(4.3105626,0,0,-4.31049,256,540.36216)">
      <path
         style="fill:#000000;fill-opacity:1;fill-rule:nonzero;stroke:none"
         d="M 256 0 C 114.60924 0 0 114.62495 0 255.99609 C 0 397.38879 114.60924 512 256 512 C 397.39076 512 512 397.38879 512 255.99609 C 512 114.62495 397.39076 0 256 0 z M 256 100.62695 L 386.07422 180.30664 L 386.07422 339.65625 L 256 419.32812 L 125.92383 339.65625 L 125.92383 180.30664 L 256 100.62695 z "
         transform="matrix(0.23198828,0,0,-0.23199219,-59.388999,0)"
         id="path4192" />
    </g>
    <g
       id="g4194"
       transform="matrix(4.3105626,0,0,-4.31049,386.07465,880.01928)" />
    <g
       id="g4198"
       transform="matrix(4.3105626,0,0,-4.31049,256,813.17739)">
      <path
         d="M 0,0 0,-42.164 M 37.057,22.698 0,0 -37.057,22.698"
         style="fill:none;stroke:#000000;stroke-width:7;stroke-linecap:butt;stroke-linejoin:miter;stroke-miterlimit:10;stroke-dasharray:none;stroke-opacity:1"
         id="path4200"
         inkscape:connector-curvature="0" />
    </g>
  </g>
</svg>
